<svg xmlns="http://www.w3.org/2000/svg" version="1.1" xmlns:xlink="http://www.w3.org/1999/xlink" xmlns:svgjs="http://svgjs.dev/svgjs" width="1000" height="338" viewBox="0 0 1000 338"><g transform="matrix(1,0,0,1,-0.6060606060606233,-0.3009574942633435)"><svg viewBox="0 0 396 134" data-background-color="#ffffff" preserveAspectRatio="xMidYMid meet" height="338" width="1000" xmlns="http://www.w3.org/2000/svg" xmlns:xlink="http://www.w3.org/1999/xlink"><g id="tight-bounds" transform="matrix(1,0,0,1,0.2400000000000091,0.11956702626741844)"><svg viewBox="0 0 395.52 133.76109423266712" height="133.76109423266712" width="395.52"><g><svg viewBox="0 0 617.7237427056684 208.90828215465396" height="133.76109423266712" width="395.52"><g transform="matrix(1,0,0,1,220.22614270566845,64.55569146795838)"><svg viewBox="0 0 397.4975999999999 79.7968992187372" height="79.7968992187372" width="397.4975999999999"><g><svg viewBox="0 0 397.4975999999999 79.7968992187372" height="79.7968992187372" width="397.4975999999999" id="textblock"><g><rect width="397.4975999999999" height="4.323092364729275" x="0" y="53.03058212532318" fill="#ea3c12" opacity="1" stroke-width="0" stroke="transparent" fill-opacity="1" class="rect-o-0" data-fill-palette-color="primary" rx="1%" id="o-0" data-palette-color="#ea3c12"></rect></g><g transform="matrix(1,0,0,1,0.9887999999999693,0)"><svg viewBox="0 0 395.52 47.93793405168922" height="47.93793405168922" width="395.52"><g transform="matrix(1,0,0,1,0,0)"><svg width="395.52" viewBox="3.6100001335144043 -36.040000915527344 301.32000732421875 36.53000259399414" height="47.93793405168922" data-palette-color="#ea3c12"><path d="M23.8 0L16.67-13.7 9.79-13.7 9.79 0 3.61 0 3.61-35.55 16.11-35.55Q22.27-35.55 25.61-32.79 28.96-30.03 28.96-24.8L28.96-24.8Q28.96-21.24 27.23-18.84 25.51-16.43 22.44-15.14L22.44-15.14 30.42-0.32 30.42 0 23.8 0ZM9.79-30.57L9.79-18.65 16.14-18.65Q19.26-18.65 21.02-20.23 22.78-21.8 22.78-24.54L22.78-24.54Q22.78-27.39 21.15-28.96 19.53-30.52 16.31-30.57L16.31-30.57 9.79-30.57ZM55.59-20.75L55.59-15.87 40.99-15.87 40.99-4.93 58.05-4.93 58.05 0 34.81 0 34.81-35.55 57.88-35.55 57.88-30.57 40.99-30.57 40.99-20.75 55.59-20.75ZM85.88 0L82.98-8.28 69.21-8.28 66.33 0 59.91 0 73.33-35.55 78.88-35.55 92.33 0 85.88 0ZM76.09-28L70.94-13.26 81.25-13.26 76.09-28ZM116.81-11.57L122.97-11.57Q122.43-5.88 118.77-2.7 115.1 0.49 109.03 0.49L109.03 0.49Q104.78 0.49 101.54-1.53 98.31-3.54 96.55-7.25 94.79-10.96 94.72-15.87L94.72-15.87 94.72-19.19Q94.72-24.22 96.5-28.05 98.28-31.88 101.62-33.96 104.95-36.04 109.32-36.04L109.32-36.04Q115.2-36.04 118.79-32.84 122.38-29.64 122.97-23.8L122.97-23.8 116.81-23.8Q116.37-27.64 114.58-29.33 112.79-31.03 109.32-31.03L109.32-31.03Q105.29-31.03 103.13-28.09 100.97-25.15 100.92-19.46L100.92-19.46 100.92-16.31Q100.92-10.55 102.98-7.52 105.05-4.49 109.03-4.49L109.03-4.49Q112.66-4.49 114.49-6.13 116.33-7.76 116.81-11.57L116.81-11.57ZM153.46-35.55L153.46-30.57 142.37-30.57 142.37 0 136.24 0 136.24-30.57 125.26-30.57 125.26-35.55 153.46-35.55ZM182.63-13.21L175.28-13.21 175.28 0 169.1 0 169.1-35.55 182.7-35.55Q188.66-35.55 192.16-32.45 195.66-29.35 195.66-24.24L195.66-24.24Q195.66-19.02 192.23-16.11 188.8-13.21 182.63-13.21L182.63-13.21ZM175.28-30.57L175.28-18.16 182.7-18.16Q186-18.16 187.73-19.71 189.46-21.26 189.46-24.19L189.46-24.19Q189.46-27.08 187.7-28.8 185.95-30.52 182.87-30.57L182.87-30.57 175.28-30.57ZM207.58-35.55L207.58 0 201.42 0 201.42-35.55 207.58-35.55ZM239.38-31.64L220.98-4.93 239.97-4.93 239.97 0 213.51 0 213.51-4 231.89-30.57 213.63-30.57 213.63-35.55 239.38-35.55 239.38-31.64ZM269.48-31.64L251.08-4.93 270.07-4.93 270.07 0 243.61 0 243.61-4 261.99-30.57 243.73-30.57 243.73-35.55 269.48-35.55 269.48-31.64ZM298.49 0L295.58-8.28 281.81-8.28 278.93 0 272.51 0 285.94-35.55 291.48-35.55 304.93 0 298.49 0ZM288.7-28L283.54-13.26 293.85-13.26 288.7-28Z" opacity="1" transform="matrix(1,0,0,1,0,0)" fill="#ea3c12" class="undefined-text-0" data-fill-palette-color="primary" id="text-0"></path></svg></g></svg></g><g transform="matrix(1,0,0,1,0,62.44632256368642)"><svg viewBox="0 0 232.209792 17.350576655050777" height="17.350576655050777" width="232.209792"><g transform="matrix(1,0,0,1,0,0)"><svg width="232.209792" viewBox="3.690000057220459 -39.84000015258789 685.1099853515625 51.19000244140625" height="17.350576655050777" data-palette-color="#ea3c12"><path d="M24.19-14.43L24.19-32.71Q24.39-33.52 24.54-33.89 24.68-34.25 25.17-34.38L25.17-34.38 31.49-35.86Q31.79-35.96 32.13-35.96L32.13-35.96Q32.45-35.96 32.59-35.74 32.74-35.52 32.74-34.91L32.74-34.91Q32.59-34.33 32.5-33.12 32.4-31.91 32.35-30.47 32.3-29.03 32.28-27.58 32.25-26.12 32.25-25.05L32.25-25.05 32.25-23.71Q32.25-22.19 32.23-20.41 32.2-18.63 32.17-16.8 32.13-14.97 32.08-13.18 32.03-11.4 31.98-9.84L31.98-9.84 31.84-5.66Q31.81-5.54 31.81-5.44 31.81-5.35 31.81-5.25L31.81-5.25 31.81-4.88Q31.81-4.47 31.82-4.19 31.84-3.91 31.84-3.69L31.84-3.69Q31.84-3.44 31.8-3.25 31.76-3.05 31.62-2.87 31.47-2.69 31.21-2.49 30.96-2.29 30.52-2L30.52-2Q30.27-1.83 29.71-1.5 29.15-1.17 28.47-0.76 27.78-0.34 27.05 0.1 26.32 0.54 25.71 0.89 25.1 1.25 24.72 1.46 24.34 1.68 24.34 1.68L24.34 1.68 13.01-15.75 11.99-1.46Q11.96-1.27 11.9-1.05 11.84-0.83 11.57-0.71L11.57-0.71Q11.35-0.61 10.82-0.4 10.28-0.2 9.56 0.07 8.84 0.34 8.04 0.62 7.25 0.9 6.54 1.14 5.83 1.37 5.29 1.51 4.74 1.66 4.54 1.66L4.54 1.66Q4.17 1.66 3.93 1.46 3.69 1.27 3.69 0.76L3.69 0.76Q3.93-2.29 4.25-5.9 4.57-9.5 4.86-13.28 5.15-17.07 5.41-20.84 5.66-24.61 5.83-28L5.83-28Q5.83-28.1 5.53-28.65 5.22-29.2 4.85-29.85 4.47-30.49 4.16-31.07 3.86-31.64 3.86-31.79L3.86-31.79Q3.86-31.96 4.04-32.1 4.22-32.25 4.64-32.5L4.64-32.5 11.16-36.18Q11.23-36.18 11.36-36.21 11.5-36.23 11.6-36.23L11.6-36.23Q11.87-36.23 12.02-36.17 12.18-36.11 12.35-35.79L12.35-35.79 24.19-14.43ZM63.67-27.66L61.15-4.91Q61.13-4.81 61.13-4.72 61.13-4.64 61.13-4.57L61.13-4.57Q61.13-3.96 61.33-3.55 61.52-3.15 61.75-2.89 61.98-2.64 62.18-2.48 62.38-2.32 62.38-2.2L62.38-2.2Q62.38-1.86 61.64-1.56L61.64-1.56 55.08 1.25Q55.05 1.27 54.9 1.27L54.9 1.27Q54.71 1.27 54.51 0.93 54.32 0.59 54.14 0.06 53.95-0.46 53.79-1.06 53.64-1.66 53.51-2.17L53.51-2.17Q51.98-0.39 50.19 0.44 48.41 1.27 46.65 1.27L46.65 1.27Q44.6 1.27 42.65 0.37 40.7-0.54 39.18-2.21 37.67-3.88 36.75-6.25 35.84-8.62 35.84-11.57L35.84-11.57Q35.84-15.06 36.85-17.94 37.86-20.83 39.6-22.9 41.33-24.98 43.64-26.11 45.94-27.25 48.53-27.25L48.53-27.25Q50.36-27.25 52-26.5 53.64-25.76 55.1-24.58L55.1-24.58Q55.25-25.32 55.27-25.76 55.3-26.2 55.38-26.44 55.47-26.68 55.71-26.77 55.95-26.86 56.52-26.9L56.52-26.9Q58.27-27.15 60.02-27.36 61.77-27.56 63.67-27.66L63.67-27.66ZM52.83-6.88L53.85-14.11Q54.1-15.5 54.18-16.74 54.27-17.97 54.32-18.99L54.32-18.99Q53.93-19.29 53.48-19.6 53.02-19.92 52.5-20.2 51.98-20.48 51.4-20.65 50.83-20.83 50.19-20.83L50.19-20.83Q48.87-20.83 47.98-19.97 47.09-19.12 46.54-17.87 45.99-16.63 45.76-15.23 45.53-13.84 45.53-12.77L45.53-12.77Q45.53-8.91 46.54-7.12 47.56-5.32 49.36-5.32L49.36-5.32Q50.1-5.32 51-5.74 51.9-6.15 52.83-6.88L52.83-6.88ZM69.23-29.83L69.23-29.83Q69.31-30.88 69.34-31.45 69.38-32.01 69.4-32.29 69.43-32.57 69.43-32.64 69.43-32.71 69.44-32.75 69.45-32.79 69.47-32.9 69.48-33.01 69.5-33.36 69.53-33.72 69.58-34.4 69.62-35.08 69.72-36.28L69.72-36.28Q69.77-37.08 69.88-37.39 69.99-37.7 70.43-37.79L70.43-37.79Q72.5-38.21 74.78-38.66 77.05-39.11 79.17-39.82L79.17-39.82Q79.24-39.84 79.39-39.84L79.39-39.84Q79.46-39.7 79.58-39.65L79.58-39.65 79.66-39.6 79.12-32.91Q79.05-32.1 78.94-31.79 78.83-31.47 78.41-31.4L78.41-31.4Q76.34-31.01 74.21-30.54 72.09-30.08 69.72-29.61L69.72-29.61Q69.65-29.59 69.5-29.59L69.5-29.59Q69.23-29.59 69.23-29.83ZM66.52-2.17L66.52-2.17Q66.74-4.13 67.01-6.68 67.28-9.23 67.56-12.06 67.84-14.89 68.11-17.87 68.38-20.85 68.6-23.68L68.6-23.68Q68.65-24.49 68.76-24.79 68.87-25.1 69.31-25.2L69.31-25.2Q71.38-25.61 73.65-26.06 75.92-26.51 78.05-27.22L78.05-27.22Q78.12-27.25 78.27-27.25L78.27-27.25Q78.54-27.25 78.54-27.05L78.54-27.05 76.73-7.06 76.24-3.17Q75.61 2.49 73.01 5.26 70.41 8.03 65.45 8.03L65.45 8.03Q64.99 8.03 64.16 7.9 63.33 7.76 62.37 7.53 61.42 7.3 60.43 7.01 59.44 6.71 58.65 6.42 57.86 6.13 57.34 5.85 56.83 5.57 56.83 5.35L56.83 5.35Q56.83 5.15 57 4.83L57 4.83Q57.73 3.42 58.11 2.49 58.49 1.56 58.71 1.01 58.93 0.46 59.06 0.24 59.2 0.02 59.47 0.02L59.47 0.02Q59.69 0.02 60.25 0.27L60.25 0.27Q61.1 0.61 61.95 0.85 62.79 1.1 63.62 1.1L63.62 1.1Q64.11 1.1 64.58 0.95 65.06 0.81 65.45 0.43 65.84 0.05 66.12-0.59 66.4-1.22 66.52-2.17ZM92.94-17.43L92.13-7.96Q92.38-7.47 92.83-6.97 93.28-6.47 93.88-6.05 94.47-5.64 95.18-5.38 95.89-5.13 96.65-5.13L96.65-5.13Q97.7-5.13 98.63-5.94 99.55-6.76 100.25-8.14 100.94-9.52 101.34-11.29 101.73-13.06 101.73-14.97L101.73-14.97Q101.73-16.14 101.52-17.19 101.31-18.24 100.87-19.02 100.43-19.8 99.74-20.26 99.04-20.73 98.06-20.73L98.06-20.73Q96.48-20.73 95.16-19.8 93.84-18.87 92.94-17.43L92.94-17.43ZM83.05 1.2L83.05 1.2Q82.71 1.27 82.51 1.27L82.51 1.27Q81.73 1.27 81.73 0.34L81.73 0.34Q81.73 0.22 81.74 0.1 81.76-0.02 81.78-0.17L81.78-0.17 84.61-34.72Q84.61-34.79 84.62-34.86 84.64-34.94 84.64-34.99L84.64-34.99Q84.64-35.08 84.62-35.16 84.61-35.23 84.61-35.28L84.61-35.28Q84.61-35.5 84.77-35.63 84.93-35.77 85.59-35.94L85.59-35.94 92.45-37.57Q92.72-37.62 93.16-37.79 93.6-37.96 94.01-37.96L94.01-37.96Q94.33-37.96 94.61-37.82 94.89-37.67 94.89-37.26L94.89-37.26Q94.89-37.21 94.88-37.16 94.87-37.11 94.87-37.06L94.87-37.06Q94.84-36.94 94.74-35.99 94.65-35.03 94.52-33.68 94.4-32.32 94.26-30.77 94.11-29.22 93.99-27.87 93.86-26.51 93.77-25.56 93.67-24.61 93.64-24.49L93.64-24.49Q95.43-25.66 97.33-26.45 99.24-27.25 101.14-27.25L101.14-27.25Q103.65-27.25 105.49-26.21 107.32-25.17 108.51-23.45 109.71-21.73 110.28-19.48 110.86-17.24 110.86-14.84L110.86-14.84Q110.86-12.92 110.5-10.97 110.15-9.03 109.48-7.25 108.81-5.47 107.79-3.91 106.78-2.34 105.47-1.2 104.17-0.05 102.56 0.61 100.94 1.27 99.06 1.27L99.06 1.27Q96.79 1.27 94.91 0.27 93.03-0.73 91.42-2.32L91.42-2.32Q91.37-1.73 91.35-1.39 91.33-1.05 91.19-0.87 91.06-0.68 90.79-0.57 90.52-0.46 89.98-0.34L89.98-0.34Q89.71-0.27 89.04-0.11 88.37 0.05 87.43 0.26 86.49 0.46 85.36 0.71 84.22 0.95 83.05 1.2ZM141.47-27.66L138.95-4.91Q138.93-4.81 138.93-4.72 138.93-4.64 138.93-4.57L138.93-4.57Q138.93-3.96 139.13-3.55 139.32-3.15 139.55-2.89 139.78-2.64 139.98-2.48 140.18-2.32 140.18-2.2L140.18-2.2Q140.18-1.86 139.44-1.56L139.44-1.56 132.88 1.25Q132.85 1.27 132.7 1.27L132.7 1.27Q132.51 1.27 132.31 0.93 132.12 0.59 131.94 0.06 131.75-0.46 131.59-1.06 131.44-1.66 131.31-2.17L131.31-2.17Q129.78-0.39 127.99 0.44 126.21 1.27 124.45 1.27L124.45 1.27Q122.4 1.27 120.45 0.37 118.5-0.54 116.98-2.21 115.47-3.88 114.55-6.25 113.64-8.62 113.64-11.57L113.64-11.57Q113.64-15.06 114.65-17.94 115.66-20.83 117.4-22.9 119.13-24.98 121.44-26.11 123.74-27.25 126.33-27.25L126.33-27.25Q128.16-27.25 129.8-26.5 131.44-25.76 132.9-24.58L132.9-24.58Q133.05-25.32 133.07-25.76 133.1-26.2 133.18-26.44 133.27-26.68 133.51-26.77 133.75-26.86 134.32-26.9L134.32-26.9Q136.07-27.15 137.82-27.36 139.57-27.56 141.47-27.66L141.47-27.66ZM130.63-6.88L131.66-14.11Q131.9-15.5 131.98-16.74 132.07-17.97 132.12-18.99L132.12-18.99Q131.73-19.29 131.28-19.6 130.82-19.92 130.3-20.2 129.78-20.48 129.2-20.65 128.63-20.83 127.99-20.83L127.99-20.83Q126.67-20.83 125.78-19.97 124.89-19.12 124.34-17.87 123.79-16.63 123.56-15.23 123.33-13.84 123.33-12.77L123.33-12.77Q123.33-8.91 124.34-7.12 125.36-5.32 127.16-5.32L127.16-5.32Q127.9-5.32 128.8-5.74 129.7-6.15 130.63-6.88L130.63-6.88ZM165.98-27.44L164.47-19.87Q163.95-19.92 163.32-19.98 162.68-20.04 161.97-20.04L161.97-20.04Q160.9-20.04 159.79-19.86 158.68-19.68 157.73-19.14 156.77-18.6 156.09-17.66 155.41-16.72 155.21-15.23L155.21-15.23Q155.04-13.43 154.93-12.27 154.82-11.11 154.77-10.36 154.72-9.62 154.69-9.17 154.65-8.72 154.63-8.33L154.63-8.33Q154.63-8.23 154.59-7.79 154.55-7.35 154.48-6.76 154.41-6.18 154.35-5.49 154.28-4.81 154.21-4.22 154.14-3.64 154.1-3.2 154.06-2.76 154.06-2.66L154.06-2.66Q154.06-2.47 154.08-2.33 154.09-2.2 154.09-2.08L154.09-2.08Q154.09-1.88 153.91-1.75 153.72-1.61 153.09-1.44L153.09-1.44 146.62 0.88Q146.35 0.98 145.91 1.12 145.47 1.27 145.06 1.27L145.06 1.27Q144.71 1.27 144.46 1.1 144.2 0.93 144.2 0.51L144.2 0.51 146.3-23.68Q146.37-24.49 146.48-24.79 146.59-25.1 147.03-25.2L147.03-25.2Q149.26-25.63 151.62-26.09 153.99-26.54 156.21-27.25L156.21-27.25Q156.41-27.25 156.45-27.19 156.48-27.12 156.48-27L156.48-27Q156.48-26.95 156.47-26.86 156.46-26.76 156.4-26.42 156.34-26.07 156.23-25.38 156.12-24.68 155.92-23.44L155.92-23.44Q157.04-24.32 158.4-25.05 159.75-25.78 161.12-26.31 162.49-26.83 163.76-27.14 165.03-27.44 165.98-27.44L165.98-27.44ZM184.09-8.33L184.6-13.89Q184.68-14.67 184.76-15.53 184.85-16.38 184.97-17.31L184.97-17.31Q184.41-18.77 183.38-19.69 182.36-20.61 180.82-20.61L180.82-20.61Q179.31-20.61 178.26-19.74 177.21-18.87 176.57-17.6 175.94-16.33 175.66-14.93 175.38-13.53 175.38-12.45L175.38-12.45Q175.38-11.13 175.53-9.84 175.69-8.54 176.05-7.5 176.4-6.45 176.99-5.8 177.57-5.15 178.45-5.15L178.45-5.15Q180.6-5.22 181.94-6.13 183.29-7.03 184.09-8.33L184.09-8.33ZM196.27-36.84L193.12-2.47Q193.12-2.42 193.11-2.36 193.1-2.29 193.1-2.25L193.1-2.25Q193.1-2.12 193.11-2.05 193.12-1.98 193.12-1.9L193.12-1.9Q193.12-1.68 192.97-1.55 192.81-1.42 192.15-1.25L192.15-1.25 185.61 0.88Q185.34 0.98 184.9 1.12 184.46 1.27 184.04 1.27L184.04 1.27Q183.7 1.27 183.44 1.1 183.19 0.93 183.19 0.46L183.19 0.46Q183.19 0.02 183.2-0.24 183.21-0.51 183.22-0.74 183.24-0.98 183.27-1.25 183.31-1.51 183.36-1.95L183.36-1.95Q181.53-0.49 179.59 0.39 177.65 1.27 175.5 1.27L175.5 1.27Q173.15 1.27 171.34 0.16 169.52-0.95 168.27-2.82 167.03-4.69 166.38-7.09 165.73-9.5 165.73-12.11L165.73-12.11Q165.73-15.5 166.84-18.3 167.95-21.09 169.86-23.08 171.76-25.07 174.3-26.16 176.84-27.25 179.7-27.25L179.7-27.25Q181.24-27.25 182.64-26.44 184.04-25.63 185.29-24.37L185.29-24.37Q185.36-25.56 185.46-26.97 185.56-28.37 185.65-29.82 185.75-31.27 185.85-32.69 185.95-34.11 186.02-35.28L186.02-35.28Q186.02-35.5 186.18-35.63 186.34-35.77 187-35.94L187-35.94 193.86-37.57Q194.13-37.62 194.57-37.79 195-37.96 195.42-37.96L195.42-37.96Q195.74-37.96 196.02-37.82 196.3-37.67 196.3-37.26L196.3-37.26Q196.3-37.21 196.29-37.05 196.27-36.89 196.27-36.84L196.27-36.84ZM210.53 0L201.86 0Q201.37 0 200.82-0.05 200.28-0.1 199.82-0.23 199.37-0.37 199.07-0.59 198.76-0.81 198.76-1.17L198.76-1.17Q198.76-1.2 198.79-1.25 198.81-1.29 198.81-1.34L198.81-1.34 207.43-19.02Q206.4-19.02 205.13-18.98 203.86-18.95 202.58-18.91 201.3-18.87 200.14-18.85 198.98-18.82 198.18-18.82L198.18-18.82Q197.93-18.82 197.81-18.98 197.69-19.14 197.69-19.34L197.69-19.34 197.69-19.43 200.15-25.32Q200.35-25.98 200.89-26.17 201.42-26.37 201.96-26.37L201.96-26.37Q206.26-26.37 210.4-26.22 214.53-26.07 218.81-26.07L218.81-26.07Q219.07-26.07 219.36-25.9 219.64-25.73 219.64-25.49L219.64-25.49Q219.64-25.46 219.59-25.32L219.59-25.32 211.85-8.42Q211.85-8.37 211.98-8.35 212.12-8.33 212.32-8.3 212.53-8.28 212.74-8.28 212.95-8.28 213.09-8.28L213.09-8.28Q214.63-8.28 216.07-8.35 217.51-8.42 218.98-8.42L218.98-8.42Q219.25-8.42 219.44-8.3 219.64-8.18 219.64-7.81L219.64-7.81Q219.64-7.76 219.59-7.76L219.59-7.76 216.51-1.34Q216.29-0.88 215.73-0.61 215.17-0.34 214.36-0.21 213.56-0.07 212.57-0.04 211.58 0 210.53 0L210.53 0ZM223.42-10.35L223.42-10.35Q223.73-13.7 224.05-16.97 224.37-20.24 224.61-23.68L224.61-23.68Q224.66-24.49 224.77-24.79 224.88-25.1 225.32-25.2L225.32-25.2Q227.4-25.61 229.67-26.06 231.94-26.51 234.06-27.22L234.06-27.22Q234.14-27.25 234.28-27.25L234.28-27.25Q234.55-27.25 234.55-27.05L234.55-27.05 232.35-3.27Q232.28-2.47 232.18-2.16 232.08-1.86 231.65-1.76L231.65-1.76Q229.57-1.12 227.45-0.34 225.32 0.44 222.95 1.25L222.95 1.25Q222.88 1.27 222.73 1.27L222.73 1.27Q222.47 1.27 222.47 1.03L222.47 1.03Q222.47 1 222.51 0.37 222.56-0.27 222.65-1.27 222.73-2.27 222.83-3.52 222.93-4.76 223.04-6.01 223.15-7.25 223.25-8.4 223.34-9.55 223.42-10.35ZM225.25-29.83L225.25-29.83Q225.32-30.88 225.36-31.45 225.4-32.01 225.42-32.29 225.44-32.57 225.44-32.64 225.44-32.71 225.46-32.75 225.47-32.79 225.48-32.9 225.49-33.01 225.52-33.36 225.54-33.72 225.59-34.4 225.64-35.08 225.74-36.28L225.74-36.28Q225.79-37.08 225.9-37.39 226.01-37.7 226.44-37.79L226.44-37.79Q228.52-38.21 230.79-38.66 233.06-39.11 235.19-39.82L235.19-39.82Q235.26-39.84 235.4-39.84L235.4-39.84Q235.48-39.7 235.6-39.65L235.6-39.65 235.67-39.6 235.14-32.91Q235.06-32.1 234.95-31.79 234.84-31.47 234.43-31.4L234.43-31.4Q232.35-31.01 230.23-30.54 228.11-30.08 225.74-29.61L225.74-29.61Q225.66-29.59 225.52-29.59L225.52-29.59Q225.25-29.59 225.25-29.83ZM252.27-27.25L252.27-27.25Q254.59-27.25 256.48-26.38 258.38-25.51 259.73-24.13 261.09-22.75 261.82-21.04 262.55-19.34 262.55-17.63L262.55-17.63Q262.55-16.11 261.62-14.59 260.7-13.06 259.02-11.84 257.35-10.62 255.01-9.86 252.66-9.11 249.86-9.11L249.86-9.11Q248.39-9.11 246.78-9.4L246.78-9.4Q246.88-8.35 247.39-7.59 247.9-6.84 248.68-6.35 249.46-5.86 250.45-5.63 251.44-5.4 252.49-5.4L252.49-5.4Q253.66-5.4 254.75-5.6 255.84-5.81 256.84-6.15 257.84-6.49 258.77-6.91 259.69-7.32 260.52-7.74L260.52-7.74Q260.74-7.79 260.9-7.82 261.06-7.86 261.21-7.86L261.21-7.86Q261.21-7.86 261.2-7.47 261.18-7.08 261.18-6.37 261.18-5.66 261.17-4.66 261.16-3.66 261.13-2.44L261.13-2.44Q261.21-2.32 261.23-2.2 261.26-2.08 261.26-2L261.26-2Q261.26-1.71 260.72-1.37 260.18-1.03 259.32-0.66 258.45-0.29 257.34 0.05 256.23 0.39 255.08 0.67 253.93 0.95 252.86 1.11 251.78 1.27 250.98 1.27L250.98 1.27Q248.34 1.27 245.86 0.35 243.39-0.56 241.47-2.27 239.55-3.98 238.41-6.42 237.26-8.86 237.26-11.91L237.26-11.91Q237.26-15.11 238.36-17.91 239.46-20.7 241.44-22.78 243.43-24.85 246.19-26.05 248.95-27.25 252.27-27.25ZM251.98-20.75L251.98-20.75Q250.98-20.75 250.14-20.32 249.29-19.9 248.6-19.1 247.9-18.31 247.39-17.2 246.88-16.09 246.56-14.75L246.56-14.75Q249.07-15.19 250.73-15.67 252.39-16.16 253.4-16.66 254.4-17.16 254.81-17.66 255.23-18.16 255.23-18.63L255.23-18.63Q255.23-19.07 254.9-19.46 254.57-19.85 254.08-20.14 253.59-20.43 253.02-20.59 252.44-20.75 251.98-20.75ZM268.14-29.83L268.14-29.83Q268.21-30.88 268.25-31.45 268.29-32.01 268.31-32.29 268.33-32.57 268.33-32.64 268.33-32.71 268.35-32.75 268.36-32.79 268.37-32.9 268.38-33.01 268.41-33.36 268.43-33.72 268.48-34.4 268.53-35.08 268.63-36.28L268.63-36.28Q268.68-37.08 268.79-37.39 268.9-37.7 269.34-37.79L269.34-37.79Q271.41-38.21 273.68-38.66 275.95-39.11 278.08-39.82L278.08-39.82Q278.15-39.84 278.3-39.84L278.3-39.84Q278.37-39.7 278.49-39.65L278.49-39.65 278.56-39.6 278.03-32.91Q277.95-32.1 277.84-31.79 277.73-31.47 277.32-31.4L277.32-31.4Q275.24-31.01 273.12-30.54 271-30.08 268.63-29.61L268.63-29.61Q268.55-29.59 268.41-29.59L268.41-29.59Q268.14-29.59 268.14-29.83ZM265.43-2.17L265.43-2.17Q265.65-4.13 265.92-6.68 266.19-9.23 266.47-12.06 266.75-14.89 267.02-17.87 267.28-20.85 267.5-23.68L267.5-23.68Q267.55-24.49 267.66-24.79 267.77-25.1 268.21-25.2L268.21-25.2Q270.29-25.61 272.56-26.06 274.83-26.51 276.95-27.22L276.95-27.22Q277.03-27.25 277.17-27.25L277.17-27.25Q277.44-27.25 277.44-27.05L277.44-27.05 275.63-7.06 275.15-3.17Q274.51 2.49 271.91 5.26 269.31 8.03 264.35 8.03L264.35 8.03Q263.89 8.03 263.06 7.9 262.23 7.76 261.28 7.53 260.33 7.3 259.34 7.01 258.35 6.71 257.56 6.42 256.76 6.13 256.25 5.85 255.74 5.57 255.74 5.35L255.74 5.35Q255.74 5.15 255.91 4.83L255.91 4.83Q256.64 3.42 257.02 2.49 257.4 1.56 257.62 1.01 257.84 0.46 257.97 0.24 258.1 0.02 258.37 0.02L258.37 0.02Q258.59 0.02 259.15 0.27L259.15 0.27Q260.01 0.61 260.85 0.85 261.69 1.1 262.52 1.1L262.52 1.1Q263.01 1.1 263.49 0.95 263.96 0.81 264.35 0.43 264.75 0.05 265.03-0.59 265.31-1.22 265.43-2.17ZM312.96-27.44L311.44-19.87Q310.93-19.92 310.3-19.98 309.66-20.04 308.95-20.04L308.95-20.04Q307.88-20.04 306.77-19.86 305.66-19.68 304.71-19.14 303.75-18.6 303.07-17.66 302.39-16.72 302.19-15.23L302.19-15.23Q302.02-13.43 301.91-12.27 301.8-11.11 301.75-10.36 301.7-9.62 301.67-9.17 301.63-8.72 301.61-8.33L301.61-8.33Q301.61-8.23 301.57-7.79 301.53-7.35 301.46-6.76 301.39-6.18 301.32-5.49 301.26-4.81 301.19-4.22 301.12-3.64 301.08-3.2 301.04-2.76 301.04-2.66L301.04-2.66Q301.04-2.47 301.06-2.33 301.07-2.2 301.07-2.08L301.07-2.08Q301.07-1.88 300.89-1.75 300.7-1.61 300.07-1.44L300.07-1.44 293.6 0.88Q293.33 0.98 292.89 1.12 292.45 1.27 292.04 1.27L292.04 1.27Q291.69 1.27 291.44 1.1 291.18 0.93 291.18 0.51L291.18 0.51 293.28-23.68Q293.35-24.49 293.46-24.79 293.57-25.1 294.01-25.2L294.01-25.2Q296.23-25.63 298.6-26.09 300.97-26.54 303.19-27.25L303.19-27.25Q303.39-27.25 303.42-27.19 303.46-27.12 303.46-27L303.46-27Q303.46-26.95 303.45-26.86 303.44-26.76 303.38-26.42 303.31-26.07 303.2-25.38 303.1-24.68 302.9-23.44L302.9-23.44Q304.02-24.32 305.38-25.05 306.73-25.78 308.1-26.31 309.47-26.83 310.74-27.14 312.01-27.44 312.96-27.44L312.96-27.44ZM327.58-27.25L327.58-27.25Q329.9-27.25 331.79-26.38 333.68-25.51 335.04-24.13 336.39-22.75 337.13-21.04 337.86-19.34 337.86-17.63L337.86-17.63Q337.86-16.11 336.93-14.59 336-13.06 334.33-11.84 332.66-10.62 330.31-9.86 327.97-9.11 325.16-9.11L325.16-9.11Q323.7-9.11 322.09-9.4L322.09-9.4Q322.18-8.35 322.7-7.59 323.21-6.84 323.99-6.35 324.77-5.86 325.76-5.63 326.75-5.4 327.8-5.4L327.8-5.4Q328.97-5.4 330.06-5.6 331.14-5.81 332.15-6.15 333.15-6.49 334.07-6.91 335-7.32 335.83-7.74L335.83-7.74Q336.05-7.79 336.21-7.82 336.37-7.86 336.52-7.86L336.52-7.86Q336.52-7.86 336.5-7.47 336.49-7.08 336.49-6.37 336.49-5.66 336.48-4.66 336.47-3.66 336.44-2.44L336.44-2.44Q336.52-2.32 336.54-2.2 336.56-2.08 336.56-2L336.56-2Q336.56-1.71 336.03-1.37 335.49-1.03 334.62-0.66 333.76-0.29 332.65 0.05 331.53 0.39 330.39 0.67 329.24 0.95 328.17 1.11 327.09 1.27 326.29 1.27L326.29 1.27Q323.65 1.27 321.17 0.35 318.69-0.56 316.78-2.27 314.86-3.98 313.71-6.42 312.57-8.86 312.57-11.91L312.57-11.91Q312.57-15.11 313.66-17.91 314.76-20.7 316.75-22.78 318.74-24.85 321.5-26.05 324.26-27.25 327.58-27.25ZM327.29-20.75L327.29-20.75Q326.29-20.75 325.44-20.32 324.6-19.9 323.91-19.1 323.21-18.31 322.7-17.2 322.18-16.09 321.87-14.75L321.87-14.75Q324.38-15.19 326.04-15.67 327.7-16.16 328.7-16.66 329.7-17.16 330.12-17.66 330.53-18.16 330.53-18.63L330.53-18.63Q330.53-19.07 330.2-19.46 329.87-19.85 329.39-20.14 328.9-20.43 328.32-20.59 327.75-20.75 327.29-20.75ZM368.35-27.66L365.83-4.91Q365.81-4.81 365.81-4.72 365.81-4.64 365.81-4.57L365.81-4.57Q365.81-3.96 366.01-3.55 366.2-3.15 366.43-2.89 366.66-2.64 366.86-2.48 367.05-2.32 367.05-2.2L367.05-2.2Q367.05-1.86 366.32-1.56L366.32-1.56 359.76 1.25Q359.73 1.27 359.58 1.27L359.58 1.27Q359.39 1.27 359.19 0.93 359 0.59 358.82 0.06 358.63-0.46 358.47-1.06 358.31-1.66 358.19-2.17L358.19-2.17Q356.65-0.39 354.87 0.44 353.09 1.27 351.33 1.27L351.33 1.27Q349.28 1.27 347.33 0.37 345.38-0.54 343.86-2.21 342.35-3.88 341.43-6.25 340.52-8.62 340.52-11.57L340.52-11.57Q340.52-15.06 341.53-17.94 342.54-20.83 344.28-22.9 346.01-24.98 348.32-26.11 350.62-27.25 353.21-27.25L353.21-27.25Q355.04-27.25 356.68-26.5 358.31-25.76 359.78-24.58L359.78-24.58Q359.93-25.32 359.95-25.76 359.97-26.2 360.06-26.44 360.15-26.68 360.39-26.77 360.63-26.86 361.2-26.9L361.2-26.9Q362.95-27.15 364.7-27.36 366.44-27.56 368.35-27.66L368.35-27.66ZM357.51-6.88L358.53-14.11Q358.78-15.5 358.86-16.74 358.95-17.97 359-18.99L359-18.99Q358.61-19.29 358.16-19.6 357.7-19.92 357.18-20.2 356.65-20.48 356.08-20.65 355.51-20.83 354.87-20.83L354.87-20.83Q353.55-20.83 352.66-19.97 351.77-19.12 351.22-17.87 350.67-16.63 350.44-15.23 350.21-13.84 350.21-12.77L350.21-12.77Q350.21-8.91 351.22-7.12 352.24-5.32 354.04-5.32L354.04-5.32Q354.77-5.32 355.68-5.74 356.58-6.15 357.51-6.88L357.51-6.88ZM384.53-37.06L384.53-37.06 383.65-28.59Q383.48-26.88 383.3-25.12 383.12-23.36 382.95-21.75 382.78-20.14 382.63-18.77 382.48-17.41 382.38-16.53L382.38-16.53 384.07-18.38 386.8-21.58Q387.32-22.17 387.8-22.75 388.29-23.34 388.68-23.79 389.07-24.24 389.32-24.55 389.56-24.85 389.61-24.9L389.61-24.9 399.43-25.59Q399.5-25.61 399.58-25.61 399.67-25.61 399.74-25.61L399.74-25.61Q400.16-25.61 400.16-25.39L400.16-25.39Q400.16-25.22 399.65-24.63L399.65-24.63 392-16.09Q391.49-15.53 390.8-14.78 390.1-14.04 389.24-13.13L389.24-13.13 392.81-8.89 398.96-2.27Q399.03-2.15 399.18-2.09 399.33-2.03 399.46-1.98 399.6-1.93 399.71-1.87 399.82-1.81 399.82-1.68L399.82-1.68Q399.82-1.59 399.78-1.54 399.74-1.49 399.55-1.34L399.55-1.34Q399.33-1.17 398.78-0.85 398.23-0.54 397.5-0.15 396.76 0.24 395.93 0.65 395.1 1.05 394.32 1.38 393.54 1.71 392.88 1.92 392.22 2.12 391.86 2.12L391.86 2.12Q391.56 2.12 391.28 1.98 391 1.83 390.66 1.44L390.66 1.44Q390.2 0.9 389.5 0.04 388.81-0.83 388-1.87 387.19-2.91 386.35-4.02 385.51-5.13 384.74-6.14 383.97-7.15 383.35-7.97 382.73-8.79 382.38-9.28L382.38-9.28Q382.26-9.16 382.14-9.09 382.02-9.03 381.91-8.94 381.8-8.84 381.73-8.7 381.65-8.57 381.65-8.33L381.65-8.33Q381.65-8.23 381.6-7.78 381.55-7.32 381.49-6.7 381.43-6.08 381.36-5.37 381.29-4.66 381.22-4.04 381.16-3.42 381.11-2.97 381.07-2.51 381.07-2.42L381.07-2.42Q381.07-2.25 381.08-2.14 381.09-2.03 381.09-1.93L381.09-1.93Q381.09-1.66 380.91-1.53 380.72-1.39 380.02-1.2L380.02-1.2 373.62 0.88Q373.35 0.98 372.91 1.12 372.47 1.27 372.06 1.27L372.06 1.27Q371.72 1.27 371.46 1.1 371.2 0.93 371.2 0.46L371.2 0.46 374.28-34.72Q374.28-34.84 374.25-34.95 374.23-35.06 374.23-35.18L374.23-35.18Q374.23-35.4 374.41-35.58 374.6-35.77 375.26-35.94L375.26-35.94 382.12-37.57Q382.38-37.62 382.82-37.79 383.26-37.96 383.68-37.96L383.68-37.96Q384-37.96 384.28-37.82 384.56-37.67 384.56-37.26L384.56-37.26Q384.56-37.21 384.55-37.16 384.53-37.11 384.53-37.06ZM418.64-18.82L414.1-18.82Q413.75-16.26 413.45-13.71 413.14-11.16 413.07-8.94L413.07-8.94Q413.07-7.98 413.22-7.35 413.36-6.71 413.64-6.35 413.92-5.98 414.32-5.82 414.71-5.66 415.19-5.66L415.19-5.66Q415.98-5.66 416.9-5.9 417.83-6.13 418.76-6.49L418.76-6.49Q419.05-6.62 419.26-6.68 419.47-6.74 419.61-6.74L419.61-6.74Q419.86-6.74 419.94-6.52 420.03-6.3 420.11-5.75 420.2-5.2 420.37-4.27 420.54-3.34 420.93-1.93L420.93-1.93Q420.96-1.81 420.97-1.72 420.98-1.64 420.98-1.56L420.98-1.56Q420.98-1.22 420.72-1.07 420.47-0.93 419.88-0.73L419.88-0.73Q418.88-0.39 417.77-0.04 416.66 0.32 415.57 0.61 414.49 0.9 413.49 1.09 412.48 1.27 411.73 1.27L411.73 1.27Q407.65 1.27 405.78-0.76 403.92-2.78 403.92-6.93L403.92-6.93Q403.92-7.64 403.96-8.39 404.01-9.13 404.09-9.94L404.09-9.94Q404.33-12.38 404.51-14.56 404.7-16.75 404.89-18.75L404.89-18.75 402.33-18.75Q401.01-18.75 400.42-18.86 399.84-18.97 399.84-19.31L399.84-19.31Q399.84-19.41 400.08-19.84 400.33-20.26 400.7-20.86 401.08-21.46 401.52-22.14 401.96-22.83 402.36-23.43 402.77-24.02 403.06-24.46 403.35-24.9 403.43-25L403.43-25 405.16-25Q405.38-26.86 405.51-28.11 405.65-29.37 405.73-30.2 405.82-31.03 405.89-31.48 405.97-31.93 406.05-32.15 406.14-32.37 406.27-32.43 406.41-32.5 406.63-32.54L406.63-32.54Q407.72-32.76 408.75-32.95 409.77-33.13 410.8-33.33 411.83-33.52 412.89-33.78 413.95-34.03 415.1-34.38L415.1-34.38Q415.17-34.38 415.19-34.39 415.22-34.4 415.29-34.4L415.29-34.4Q415.59-34.4 415.59-34.2L415.59-34.2 415.59-34.16Q415.46-32.81 415.21-30.42 414.95-28.03 414.63-25L414.63-25 421.18-25Q421.37-25 421.55-24.87 421.74-24.73 421.74-24.41L421.74-24.41Q421.74-24.29 421.44-23.54 421.15-22.78 420.61-21.56L420.61-21.56 419.74-19.58Q419.56-19.21 419.38-19.04 419.2-18.87 418.64-18.82L418.64-18.82ZM439.51-0.95L434.14 11.13Q434.09 11.23 434.03 11.29 433.97 11.35 433.82 11.35L433.82 11.35Q433.67 11.35 433.6 11.33L433.6 11.33Q432.72 11.01 431.94 10.79 431.16 10.57 430.39 10.39 429.62 10.21 428.81 10.05 428.01 9.89 427.11 9.69L427.11 9.69Q426.86 9.64 426.73 9.53 426.59 9.42 426.59 9.16L426.59 9.16Q426.59 9.08 426.68 8.8 426.76 8.52 427.11 7.65 427.45 6.79 428.16 5.14 428.86 3.49 430.11 0.71L430.11 0.71Q429.74-0.51 429.28-2.22 428.81-3.93 428.29-5.96 427.77-7.98 427.2-10.24 426.64-12.5 426.07-14.81 425.49-17.11 424.92-19.37 424.35-21.63 423.81-23.68L423.81-23.68Q423.64-24.07 423.61-24.33 423.59-24.58 423.59-24.76L423.59-24.76Q423.59-25.1 423.98-25.2L423.98-25.2Q425.89-25.61 427.94-26.06 429.99-26.51 431.82-27.22L431.82-27.22Q431.89-27.25 432.04-27.25L432.04-27.25Q432.35-27.25 432.38-27L432.38-27 435.36-10.6Q435.46-10.89 435.74-11.66 436.02-12.43 436.4-13.5 436.77-14.58 437.24-15.87 437.7-17.16 438.19-18.51 438.68-19.85 439.15-21.18 439.63-22.51 440.05-23.66 440.46-24.8 440.77-25.68 441.07-26.56 441.24-27L441.24-27Q441.34-27.25 441.61-27.25L441.61-27.25Q441.68-27.25 441.71-27.23 441.73-27.22 441.8-27.22L441.8-27.22Q443.63-26.51 445.56-26.06 447.49-25.61 449.4-25.2L449.4-25.2Q449.86-25.1 449.86-24.66L449.86-24.66Q449.86-24.34 449.57-23.68L449.57-23.68 439.51-0.95ZM462.55-10.11L466.39-24.85Q466.46-25.12 466.8-25.2L466.8-25.2Q468.78-25.63 470.85-26.1 472.93-26.56 474.83-27.25L474.83-27.25Q475.17-27.25 475.17-27L475.17-27 477.66-10.35 482.33-27Q482.43-27.25 482.69-27.25L482.69-27.25Q482.77-27.25 482.79-27.23 482.82-27.22 482.89-27.22L482.89-27.22Q484.72-26.51 486.65-26.06 488.58-25.61 490.48-25.2L490.48-25.2Q490.95-25.1 490.95-24.66L490.95-24.66Q490.95-24.34 490.65-23.68L490.65-23.68 482.79-1.9Q482.6-1.49 482.45-1.21 482.3-0.93 482.16-0.77 482.01-0.61 481.84-0.52 481.67-0.44 481.42-0.39L481.42-0.39Q479.57 0 477.66 0.46 475.76 0.93 473.71 1.64L473.71 1.64Q473.66 1.64 473.64 1.65 473.61 1.66 473.59 1.66L473.59 1.66 473.42 1.66Q473.29 1.66 473.22 1.57 473.15 1.49 473.12 1.42L473.12 1.42Q472.86 0.37 472.51-1.2 472.17-2.76 471.78-4.66 471.39-6.57 470.95-8.74 470.51-10.91 470.05-13.21L470.05-13.21 466.95-2.29Q466.83-1.86 466.69-1.57 466.56-1.29 466.39-1.14 466.21-0.98 466.02-0.9 465.82-0.83 465.58-0.78L465.58-0.78Q463.72-0.42 461.82 0.06 459.92 0.54 457.87 1.25L457.87 1.25Q457.82 1.25 457.79 1.26 457.77 1.27 457.74 1.27L457.74 1.27 457.57 1.27Q457.45 1.27 457.36 1.18 457.28 1.1 457.28 1.03L457.28 1.03Q456.94-0.05 456.5-1.7 456.06-3.34 455.56-5.38 455.06-7.42 454.52-9.74 453.98-12.06 453.42-14.45 452.86-16.85 452.31-19.2 451.76-21.56 451.25-23.68L451.25-23.68Q451.08-24.07 451.05-24.33 451.03-24.58 451.03-24.76L451.03-24.76Q451.03-25.1 451.42-25.2L451.42-25.2Q453.32-25.61 455.37-26.06 457.43-26.51 459.26-27.22L459.26-27.22Q459.33-27.25 459.48-27.25L459.48-27.25Q459.79-27.25 459.82-27L459.82-27 462.55-10.11ZM518.68-0.78L512.75 0.88Q512.48 0.95 512.04 1.11 511.6 1.27 511.18 1.27L511.18 1.27Q510.84 1.27 510.58 1.1 510.33 0.93 510.33 0.51L510.33 0.51 510.33 0.37Q510.47-0.95 510.57-1.87 510.67-2.78 510.76-3.53 510.84-4.27 510.9-5.02 510.96-5.76 511.06-6.75 511.16-7.74 511.29-9.09 511.43-10.45 511.62-12.48L511.62-12.48Q511.74-13.72 511.84-15.01 511.94-16.31 511.94-17.41L511.94-17.41Q511.94-18.14 511.83-18.76 511.72-19.38 511.44-19.84 511.16-20.29 510.67-20.53 510.18-20.78 509.43-20.78L509.43-20.78Q508.86-20.78 507.87-20.53 506.89-20.29 505.91-19.73 504.93-19.17 504.18-18.25 503.42-17.33 503.32-15.99L503.32-15.99Q503.18-14.18 503.05-12.9 502.93-11.62 502.83-10.73 502.74-9.84 502.67-9.28 502.61-8.72 502.59-8.33L502.59-8.33Q502.56-8.23 502.52-7.79 502.47-7.35 502.41-6.74 502.35-6.13 502.28-5.44 502.22-4.76 502.16-4.15 502.1-3.54 502.06-3.1 502.03-2.66 502.03-2.56L502.03-2.56Q502.03-2.37 502.04-2.23 502.05-2.1 502.05-1.98L502.05-1.98Q502.05-1.78 501.87-1.65 501.69-1.51 501.05-1.34L501.05-1.34 494.58 0.88Q494.31 0.98 493.87 1.12 493.43 1.27 493.02 1.27L493.02 1.27Q492.68 1.27 492.42 1.1 492.16 0.93 492.16 0.51L492.16 0.51 494.39-24.44Q494.46-25.24 494.57-25.55 494.68-25.85 495.12-25.95L495.12-25.95Q497.34-26.39 499.68-26.84 502.03-27.29 504.25-28L504.25-28Q504.44-28 504.48-27.94 504.52-27.88 504.52-27.76L504.52-27.76Q504.52-27.71 504.51-27.61 504.49-27.51 504.43-27.17 504.37-26.83 504.26-26.14 504.15-25.44 503.96-24.19L503.96-24.19Q505.64-25.17 507.12-25.77 508.6-26.37 509.9-26.7 511.21-27.03 512.35-27.14 513.5-27.25 514.5-27.25L514.5-27.25Q517.95-27.25 519.51-25.16 521.07-23.07 521.07-18.9L521.07-18.9Q521.07-18.31 521.05-17.69 521.02-17.07 520.95-16.41L520.95-16.41 519.83-5.91Q519.7-4.88 519.68-4.02 519.65-3.15 519.65-2L519.65-2Q519.65-1.81 519.67-1.67 519.68-1.54 519.68-1.44L519.68-1.44Q519.68-1.22 519.5-1.1 519.31-0.98 518.68-0.78L518.68-0.78ZM552.2-27.66L549.68-4.91Q549.66-4.81 549.66-4.72 549.66-4.64 549.66-4.57L549.66-4.57Q549.66-3.96 549.85-3.55 550.05-3.15 550.28-2.89 550.51-2.64 550.71-2.48 550.9-2.32 550.9-2.2L550.9-2.2Q550.9-1.86 550.17-1.56L550.17-1.56 543.6 1.25Q543.58 1.27 543.43 1.27L543.43 1.27Q543.24 1.27 543.04 0.93 542.85 0.59 542.66 0.06 542.48-0.46 542.32-1.06 542.16-1.66 542.04-2.17L542.04-2.17Q540.5-0.39 538.72 0.44 536.94 1.27 535.18 1.27L535.18 1.27Q533.13 1.27 531.18 0.37 529.22-0.54 527.71-2.21 526.2-3.88 525.28-6.25 524.36-8.62 524.36-11.57L524.36-11.57Q524.36-15.06 525.38-17.94 526.39-20.83 528.12-22.9 529.86-24.98 532.16-26.11 534.47-27.25 537.06-27.25L537.06-27.25Q538.89-27.25 540.53-26.5 542.16-25.76 543.63-24.58L543.63-24.58Q543.77-25.32 543.8-25.76 543.82-26.2 543.91-26.44 543.99-26.68 544.24-26.77 544.48-26.86 545.04-26.9L545.04-26.9Q546.8-27.15 548.55-27.36 550.29-27.56 552.2-27.66L552.2-27.66ZM541.36-6.88L542.38-14.11Q542.63-15.5 542.71-16.74 542.8-17.97 542.85-18.99L542.85-18.99Q542.45-19.29 542-19.6 541.55-19.92 541.03-20.2 540.5-20.48 539.93-20.65 539.35-20.83 538.72-20.83L538.72-20.83Q537.4-20.83 536.51-19.97 535.62-19.12 535.07-17.87 534.52-16.63 534.29-15.23 534.06-13.84 534.06-12.77L534.06-12.77Q534.06-8.91 535.07-7.12 536.08-5.32 537.89-5.32L537.89-5.32Q538.62-5.32 539.53-5.74 540.43-6.15 541.36-6.88L541.36-6.88ZM597.24-25.37L597.24-25.37Q597.21-23.27 596.83-21.61 596.45-19.95 595.76-18.62 595.06-17.29 594.07-16.22 593.08-15.16 591.82-14.23L591.82-14.23Q589.37-12.48 586.47-11.58 583.56-10.69 580.63-10.69L580.63-10.69Q580.15-10.69 579.67-10.72 579.19-10.74 578.7-10.79L578.7-10.79 577.9-1.88 577.48-1.12Q577.44-1.03 576.65-0.73 575.87-0.44 574.7-0.05L574.7-0.05 573.16 0.46Q572.43 0.73 571.87 0.95 571.31 1.17 570.82 1.34 570.33 1.51 569.87 1.6 569.4 1.68 568.89 1.68L568.89 1.68Q568.55 1.68 568.35 1.51 568.16 1.34 568.16 0.85L568.16 0.85 568.43-3.32Q568.5-4.57 568.61-5.82 568.72-7.08 568.82-8.69L568.82-8.69 569.28-14.53Q569.43-16.31 569.55-18.09 569.67-19.87 569.79-21.48 569.92-23.1 570.01-24.5 570.11-25.9 570.18-26.95L570.18-26.95Q568.87-26.66 568.07-26.53 567.28-26.39 566.86-26.39L566.86-26.39Q566.35-26.39 566.35-26.83L566.35-26.83Q566.69-28.03 566.99-29.17L566.99-29.17Q567.25-30.15 567.54-31.19 567.82-32.23 568.01-32.93L568.01-32.93Q568.13-33.37 568.29-33.61 568.45-33.84 568.71-33.97 568.96-34.11 569.37-34.22 569.77-34.33 570.36-34.52L570.36-34.52Q570.82-34.67 571.66-34.85 572.5-35.03 573.59-35.22 574.68-35.4 575.95-35.57 577.22-35.74 578.52-35.88 579.83-36.01 581.1-36.1 582.37-36.18 583.49-36.18L583.49-36.18Q586.27-36.18 588.76-35.67 591.25-35.16 593.13-33.92 595.01-32.69 596.12-30.6 597.24-28.52 597.24-25.37ZM579.39-18.04L579.39-18.04Q579.39-17.77 579.49-17.57 579.58-17.36 580.02-17.36L580.02-17.36Q580.71-17.36 581.65-17.66 582.59-17.97 583.53-18.58 584.47-19.19 585.27-20.09 586.08-21 586.49-22.22L586.49-22.22Q586.66-22.71 586.77-23.46 586.88-24.22 586.88-25.24L586.88-25.24Q586.88-26.95 585.7-27.76 584.52-28.56 582.61-28.56L582.61-28.56Q582.29-28.56 581.89-28.53 581.49-28.49 581.13-28.39 580.78-28.3 580.54-28.16 580.29-28.03 580.27-27.81L580.27-27.81 580.22-27.27Q580.19-26.95 580.12-26.23 580.05-25.51 579.96-24.58 579.88-23.66 579.79-22.63 579.71-21.61 579.62-20.68 579.53-19.75 579.47-19.04 579.41-18.33 579.39-18.04ZM599.09-10.35L599.09-10.35Q599.41-13.7 599.72-16.97 600.04-20.24 600.28-23.68L600.28-23.68Q600.33-24.49 600.44-24.79 600.55-25.1 600.99-25.2L600.99-25.2Q603.07-25.61 605.34-26.06 607.61-26.51 609.73-27.22L609.73-27.22Q609.81-27.25 609.95-27.25L609.95-27.25Q610.22-27.25 610.22-27.05L610.22-27.05 608.02-3.27Q607.95-2.47 607.85-2.16 607.75-1.86 607.32-1.76L607.32-1.76Q605.24-1.12 603.12-0.34 600.99 0.44 598.62 1.25L598.62 1.25Q598.55 1.27 598.4 1.27L598.4 1.27Q598.14 1.27 598.14 1.03L598.14 1.03Q598.14 1 598.18 0.37 598.23-0.27 598.32-1.27 598.4-2.27 598.5-3.52 598.6-4.76 598.71-6.01 598.82-7.25 598.92-8.4 599.01-9.55 599.09-10.35ZM600.92-29.83L600.92-29.83Q600.99-30.88 601.03-31.45 601.07-32.01 601.09-32.29 601.11-32.57 601.11-32.64 601.11-32.71 601.13-32.75 601.14-32.79 601.15-32.9 601.16-33.01 601.19-33.36 601.21-33.72 601.26-34.4 601.31-35.08 601.41-36.28L601.41-36.28Q601.46-37.08 601.57-37.39 601.68-37.7 602.12-37.79L602.12-37.79Q604.19-38.21 606.46-38.66 608.73-39.11 610.86-39.82L610.86-39.82Q610.93-39.84 611.08-39.84L611.08-39.84Q611.15-39.7 611.27-39.65L611.27-39.65 611.34-39.6 610.81-32.91Q610.73-32.1 610.62-31.79 610.51-31.47 610.1-31.4L610.1-31.4Q608.02-31.01 605.9-30.54 603.78-30.08 601.41-29.61L601.41-29.61Q601.33-29.59 601.19-29.59L601.19-29.59Q600.92-29.59 600.92-29.83ZM625.36 0L616.69 0Q616.2 0 615.65-0.05 615.1-0.1 614.65-0.23 614.2-0.37 613.89-0.59 613.59-0.81 613.59-1.17L613.59-1.17Q613.59-1.2 613.61-1.25 613.64-1.29 613.64-1.34L613.64-1.34 622.25-19.02Q621.23-19.02 619.96-18.98 618.69-18.95 617.41-18.91 616.13-18.87 614.97-18.85 613.81-18.82 613-18.82L613-18.82Q612.76-18.82 612.64-18.98 612.51-19.14 612.51-19.34L612.51-19.34 612.51-19.43 614.98-25.32Q615.17-25.98 615.71-26.17 616.25-26.37 616.79-26.37L616.79-26.37Q621.08-26.37 625.22-26.22 629.36-26.07 633.63-26.07L633.63-26.07Q633.9-26.07 634.18-25.9 634.46-25.73 634.46-25.49L634.46-25.49Q634.46-25.46 634.41-25.32L634.41-25.32 626.67-8.42Q626.67-8.37 626.81-8.35 626.94-8.33 627.15-8.3 627.36-8.28 627.56-8.28 627.77-8.28 627.92-8.28L627.92-8.28Q629.46-8.28 630.9-8.35 632.34-8.42 633.8-8.42L633.8-8.42Q634.07-8.42 634.27-8.3 634.46-8.18 634.46-7.81L634.46-7.81Q634.46-7.76 634.41-7.76L634.41-7.76 631.34-1.34Q631.12-0.88 630.56-0.61 629.99-0.34 629.19-0.21 628.38-0.07 627.39-0.04 626.4 0 625.36 0L625.36 0ZM649.3 0L640.64 0Q640.15 0 639.6-0.05 639.05-0.1 638.6-0.23 638.15-0.37 637.84-0.59 637.54-0.81 637.54-1.17L637.54-1.17Q637.54-1.2 637.56-1.25 637.58-1.29 637.58-1.34L637.58-1.34 646.2-19.02Q645.18-19.02 643.91-18.98 642.64-18.95 641.36-18.91 640.07-18.87 638.91-18.85 637.75-18.82 636.95-18.82L636.95-18.82Q636.71-18.82 636.58-18.98 636.46-19.14 636.46-19.34L636.46-19.34 636.46-19.43 638.93-25.32Q639.12-25.98 639.66-26.17 640.2-26.37 640.73-26.37L640.73-26.37Q645.03-26.37 649.17-26.22 653.31-26.07 657.58-26.07L657.58-26.07Q657.85-26.07 658.13-25.9 658.41-25.73 658.41-25.49L658.41-25.49Q658.41-25.46 658.36-25.32L658.36-25.32 650.62-8.42Q650.62-8.37 650.76-8.35 650.89-8.33 651.1-8.3 651.3-8.28 651.51-8.28 651.72-8.28 651.87-8.28L651.87-8.28Q653.4-8.28 654.84-8.35 656.29-8.42 657.75-8.42L657.75-8.42Q658.02-8.42 658.21-8.3 658.41-8.18 658.41-7.81L658.41-7.81Q658.41-7.76 658.36-7.76L658.36-7.76 655.28-1.34Q655.06-0.88 654.5-0.61 653.94-0.34 653.14-0.21 652.33-0.07 651.34-0.04 650.35 0 649.3 0L649.3 0ZM688.8-27.66L686.29-4.91Q686.26-4.81 686.26-4.72 686.26-4.64 686.26-4.57L686.26-4.57Q686.26-3.96 686.46-3.55 686.65-3.15 686.89-2.89 687.12-2.64 687.31-2.48 687.51-2.32 687.51-2.2L687.51-2.2Q687.51-1.86 686.78-1.56L686.78-1.56 680.21 1.25Q680.18 1.27 680.04 1.27L680.04 1.27Q679.84 1.27 679.65 0.93 679.45 0.59 679.27 0.06 679.09-0.46 678.93-1.06 678.77-1.66 678.65-2.17L678.65-2.17Q677.11-0.39 675.33 0.44 673.54 1.27 671.79 1.27L671.79 1.27Q669.73 1.27 667.78 0.37 665.83-0.54 664.31-2.21 662.8-3.88 661.89-6.25 660.97-8.62 660.97-11.57L660.97-11.57Q660.97-15.06 661.98-17.94 663-20.83 664.73-22.9 666.46-24.98 668.77-26.11 671.08-27.25 673.67-27.25L673.67-27.25Q675.5-27.25 677.13-26.5 678.77-25.76 680.23-24.58L680.23-24.58Q680.38-25.32 680.4-25.76 680.43-26.2 680.51-26.44 680.6-26.68 680.84-26.77 681.09-26.86 681.65-26.9L681.65-26.9Q683.41-27.15 685.15-27.36 686.9-27.56 688.8-27.66L688.8-27.66ZM677.96-6.88L678.99-14.11Q679.23-15.5 679.32-16.74 679.4-17.97 679.45-18.99L679.45-18.99Q679.06-19.29 678.61-19.6 678.16-19.92 677.63-20.2 677.11-20.48 676.53-20.65 675.96-20.83 675.33-20.83L675.33-20.83Q674.01-20.83 673.12-19.97 672.23-19.12 671.68-17.87 671.13-16.63 670.89-15.23 670.66-13.84 670.66-12.77L670.66-12.77Q670.66-8.91 671.68-7.12 672.69-5.32 674.5-5.32L674.5-5.32Q675.23-5.32 676.13-5.74 677.03-6.15 677.96-6.88L677.96-6.88Z" opacity="1" transform="matrix(1,0,0,1,0,0)" fill="#ea3c12" class="undefined-text-1" data-fill-palette-color="secondary" id="text-1"></path></svg></g></svg></g></svg></g></svg></g><g><svg viewBox="0 0 208.90914698648186 208.90828215465396" height="208.90828215465396" width="208.90914698648186"><g><svg xmlns="http://www.w3.org/2000/svg" xmlns:xlink="http://www.w3.org/1999/xlink" version="1.0" x="0" y="0" viewBox="4.667734146118164 4.6859588623046875 90.3050308227539 90.30465698242188" enable-background="new 0 0 100 100" xml:space="preserve" height="208.90828215465396" width="208.90914698648186" class="icon-icon-0" data-fill-palette-color="accent" id="icon-0"><path d="M17.504 35.743c-1.334 8.611 0.522 17.134 5.093 23.382 3.514 4.801 8.413 7.905 13.796 8.739 5.677 0.88 11.253-0.429 15.703-3.685 1.248-0.912 2.36-1.946 3.326-3.076-2.222 0.978-4.814 1.267-7.626 0.831-11.717-1.816-19.673-13.464-17.735-25.964 0.934-6.03 4.384-11.497 9.713-15.397 6.768-4.952 15.953-6.97 25.201-5.537 7.474 1.158 17.67 5.964 25.56 15.213 0 0-22.835-39.421-56.115-20.356C23.689 16.04 18.653 28.323 17.504 35.743z" fill="#ea3c12" data-fill-palette-color="accent"></path><path d="M82.544 65.256c1.659-8.555 0.125-17.141-4.207-23.557-3.331-4.931-8.109-8.217-13.457-9.253-5.639-1.094-11.261 0.004-15.83 3.091-1.282 0.863-2.431 1.854-3.44 2.947 2.257-0.894 4.859-1.084 7.652-0.543 11.64 2.257 19.151 14.196 16.744 26.616-1.161 5.989-4.815 11.324-10.288 15.019-6.949 4.692-16.205 6.364-25.393 4.582C26.902 82.719 16.894 77.532 9.358 67.992c0 0 21.331 40.255 55.307 22.457C75.621 84.712 81.115 72.628 82.544 65.256z" fill="#ea3c12" data-fill-palette-color="accent"></path><path d="M35.726 82.88c8.611 1.334 17.133-0.522 23.381-5.094 4.801-3.514 7.905-8.413 8.74-13.796 0.879-5.676-0.429-11.253-3.686-15.702-0.912-1.248-1.946-2.36-3.076-3.327 0.979 2.222 1.267 4.815 0.831 7.626-1.816 11.717-13.463 19.673-25.965 17.736-6.029-0.934-11.497-4.385-15.395-9.713-4.952-6.768-6.971-15.954-5.538-25.202 1.158-7.474 5.964-17.67 15.213-25.559 0 0-39.421 22.835-20.356 56.115C16.022 76.695 28.305 81.73 35.726 82.88z" fill="#ea3c12" data-fill-palette-color="accent"></path><path d="M90.432 35.718c-5.738-10.955-17.822-16.45-25.194-17.879-8.554-1.659-17.141-0.125-23.557 4.208-4.931 3.331-8.217 8.108-9.254 13.456-1.094 5.64 0.004 11.261 3.092 15.83 0.863 1.282 1.854 2.431 2.946 3.441-0.894-2.257-1.084-4.859-0.542-7.652 2.257-11.64 14.196-19.151 26.615-16.744 5.99 1.161 11.324 4.816 15.019 10.289 4.693 6.949 6.363 16.204 4.583 25.392-1.44 7.423-6.626 17.431-16.167 24.966C67.973 91.025 108.228 69.694 90.432 35.718z" fill="#ea3c12" data-fill-palette-color="accent"></path></svg></g></svg></g></svg></g><defs></defs></svg><rect width="395.52" height="133.76109423266712" fill="none" stroke="none" visibility="hidden"></rect></g></svg></g></svg>